<!-- <svg width="24" height="22" viewBox="0 0 24 22" fill="none" xmlns="http://www.w3.org/2000/svg">
<path d="M12 21.9083L10.3083 20.3683C4.29998 14.92 0.333313 11.315 0.333313 6.91667C0.333313 3.31167 3.15665 0.5 6.74998 0.5C8.77998 0.5 10.7283 1.445 12 2.92667C13.2716 1.445 15.22 0.5 17.25 0.5C20.8433 0.5 23.6666 3.31167 23.6666 6.91667C23.6666 11.315 19.7 14.92 13.6916 20.3683L12 21.9083Z" fill="#5D935C"/>
</svg> -->
<svg xmlns="http://www.w3.org/2000/svg" width="40" height="40" viewBox="0 0 24 24" fill="none" stroke="#ff8080" stroke-width="2.75" stroke-linecap="round" stroke-linejoin="round" class="lucide lucide-star"><polygon points="12 2 15.09 8.26 22 9.27 17 14.14 18.18 21.02 12 17.77 5.82 21.02 7 14.14 2 9.27 8.91 8.26 12 2"/></svg>